<svg xmlns="http://www.w3.org/2000/svg" width="50.88" height="35.63" viewBox="0 0 50.88 35.63"><path d="M8.25 12.91a6.787 6.787 0 0 1 5.74-3.61H40.2V7.64a2.482 2.482 0 0 0-2.46-2.48H26.92V3.72a3.707 3.707 0 0 0-3.68-3.73h-6.29a3.722 3.722 0 0 0-3.69 3.73v1.44H2.45A2.475 2.475 0 0 0-.01 7.64v22.17zm7.47-9.19a1.266 1.266 0 0 1 .36-.88 1.185 1.185 0 0 1 .87-.36h6.29a1.231 1.231 0 0 1 1.23 1.24v1.44h-8.75V3.72zm25.45 29.7a4.319 4.319 0 0 1-3.54 2.22H2.33a1.417 1.417 0 0 1-1.37-2.22L10.45 14a4.333 4.333 0 0 1 3.54-2.22h35.3A1.417 1.417 0 0 1 50.66 14z" fill-rule="evenodd"/></svg>