<svg xmlns="http://www.w3.org/2000/svg" width="47.594" height="47.59" viewBox="0 0 47.594 47.59"><path d="M47.137 16.59a1.591 1.591 0 0 0-2.248 0L31.042 30.43l-19.467 8.58-3-3 8.576-19.47L30.995 2.7A1.59 1.59 0 1 0 28.747.45L14.479 14.71.002 47.58 32.87 33.11l14.266-14.27a1.592 1.592 0 0 0 .001-2.25zm-20.173 11a1.606 1.606 0 0 0 2.25 0l13.332-13.34a1.591 1.591 0 0 0-2.25-2.25L26.969 25.34a1.593 1.593 0 0 0 0 2.25zm-3.48-3.48a1.606 1.606 0 0 0 2.25 0l13.333-13.34a1.591 1.591 0 0 0-2.25-2.25L23.484 21.85a1.6 1.6 0 0 0 0 2.26zm-3.481-3.49a1.581 1.581 0 0 0 2.25 0L35.586 7.29a1.591 1.591 0 0 0-2.25-2.25L20.003 18.37a1.593 1.593 0 0 0 0 2.25z" fill-rule="evenodd"/></svg>